<svg version="1.1" id="Layer_1" xmlns="http://www.w3.org/2000/svg" xmlns:xlink="http://www.w3.org/1999/xlink" x="0px" y="0px"
	 width="100%" viewBox="0 0 525 182" enable-background="new 0 0 525 182" xml:space="preserve">
<path fill="#FFFFFF" opacity="1.000000" stroke="none" 
	d="
M174.658493,90.000023 
	C177.253113,91.364098 180.207703,92.230286 181.421432,94.180122 
	C186.166580,101.803024 190.361328,109.768532 196.689194,119.188705 
	C197.256699,117.839355 197.715469,116.431068 198.409744,115.150452 
	C202.248993,108.068695 206.280197,101.087662 209.980255,93.934837 
	C212.982010,88.131966 218.237854,89.979660 222.693619,90.176834 
	C225.724258,90.310944 228.282974,91.799210 229.193451,95.934120 
	C231.708664,107.357086 234.915848,118.634743 238.115112,129.894363 
	C238.795639,132.289505 240.602737,134.364548 242.142090,137.020676 
	C243.935776,134.741211 246.468948,132.402100 247.849503,129.512314 
	C249.149750,126.790611 250.699966,125.941795 253.483429,125.963699 
	C264.647186,126.051552 275.812347,126.040680 286.976135,125.957161 
	C288.696747,125.944290 290.413086,125.360764 292.131378,125.041138 
	C292.176392,124.361374 292.221405,123.681618 292.266418,123.001862 
	C289.956329,122.334579 287.658936,121.148224 285.333984,121.091545 
	C276.174561,120.868256 267.006531,121.006470 257.841675,120.998253 
	C247.904526,120.989349 243.000000,116.159927 243.000000,106.403633 
	C243.000000,96.444145 248.407272,91.017807 258.418518,91.005486 
	C274.867859,90.985245 291.317230,91.000000 307.870331,91.000000 
	C305.090027,101.142487 300.081818,104.999992 290.093201,105.000000 
	C281.594910,105.000008 273.094910,104.913544 264.599854,105.079559 
	C263.066925,105.109512 261.554260,106.177330 260.032257,106.765984 
	C260.158875,107.382179 260.285461,107.998367 260.412079,108.614563 
	C263.052399,109.076378 265.686432,109.888802 268.334198,109.936440 
	C277.496094,110.101326 286.662811,109.976761 295.827576,110.006660 
	C304.645844,110.035446 309.060822,114.405121 308.960785,123.160316 
	C308.929504,125.896942 308.752472,128.708221 308.090118,131.346756 
	C306.224182,138.779724 300.019531,139.821701 293.854645,139.921219 
	C278.861542,140.163269 263.861908,140.000000 248.864883,140.000000 
	C240.405060,140.000000 231.945221,140.000000 223.426132,140.000000 
	C221.288406,132.274612 219.212540,124.772781 217.045197,116.940308 
	C216.242340,117.615585 214.945480,118.224205 214.411667,119.235565 
	C211.497528,124.756622 208.594849,130.297867 206.046402,135.992462 
	C204.530243,139.380371 202.412979,141.468491 198.665344,140.944656 
	C194.919159,140.421082 190.429962,142.992584 187.533508,138.907425 
	C185.402786,135.902283 183.808899,132.515015 181.993912,129.287842 
	C179.458054,124.778923 176.939041,120.260521 173.757431,114.574997 
	C171.958069,122.476448 170.735153,129.047668 168.838211,135.418182 
	C168.294647,137.243652 165.934280,139.577637 164.177048,139.791763 
	C159.269852,140.389725 154.242279,139.999741 149.484039,139.999741 
	C153.359879,125.959183 157.350311,112.163307 160.919296,98.259254 
	C162.406982,92.463600 165.764603,90.000000 174.658493,90.000023 
z"/>
<path fill="#FFFFFF" opacity="1.000000" stroke="none" 
	d="
M422.000000,80.000000 
	C403.516113,80.000000 385.532196,80.000000 367.219818,80.000000 
	C367.284943,78.920189 367.340393,78.001335 367.401001,76.996338 
	C351.853333,82.641747 335.884918,79.042641 320.196838,79.943962 
	C314.203003,80.288330 308.172821,80.000000 302.251038,80.000000 
	C303.774048,72.521034 311.303986,66.000000 318.955566,66.000000 
	C330.101959,65.999992 341.248383,66.000000 352.769562,66.000000 
	C353.731567,60.620937 349.626984,61.154224 346.930511,61.086086 
	C337.942413,60.858955 328.944977,61.000187 319.951141,60.999962 
	C311.860596,60.999763 306.081207,57.789150 304.061249,52.152084 
	C301.431854,44.814178 304.354950,38.747101 309.254730,33.796909 
	C311.110352,31.922207 314.805695,31.159204 317.679810,31.118570 
	C334.658600,30.878515 351.642456,31.000286 370.229034,31.000286 
	C366.424713,36.014439 363.407104,40.266258 360.034546,44.214947 
	C359.323822,45.047096 357.312408,44.960930 355.898438,44.968998 
	C345.739044,45.026951 335.577454,44.906208 325.421234,45.095680 
	C323.796173,45.125999 322.194702,46.424580 320.582306,47.136848 
	C320.730713,47.902367 320.879120,48.667885 321.027527,49.433399 
	C329.139008,49.622269 337.250000,49.836807 345.362183,49.988400 
	C349.025055,50.056847 352.690308,49.994236 356.354462,50.001152 
	C364.996033,50.017471 370.995361,55.904579 370.999878,64.365997 
	C371.000763,66.030701 371.000000,67.695412 372.029602,70.161034 
	C374.684235,66.790245 377.374908,63.447117 379.985687,60.042709 
	C384.879395,53.661381 389.733459,47.249535 394.576111,40.829346 
	C394.847351,40.469761 394.810730,39.894131 395.010284,39.461910 
	C400.094879,28.448160 403.594574,29.855892 413.351074,30.189543 
	C415.432526,30.260721 418.030243,32.226810 419.375122,34.063232 
	C427.551422,45.228222 435.512360,56.554253 443.369080,67.947983 
	C445.867828,71.571678 447.828369,75.566505 450.386261,80.000000 
	C440.683441,80.000000 431.591736,80.000000 422.000000,80.000000 
M400.942871,62.479492 
	C399.997375,63.463177 399.051910,64.446861 397.855255,65.691849 
	C405.304230,65.691849 411.949127,65.691849 418.730774,65.691849 
	C415.406586,60.877460 412.277100,56.345100 408.595184,51.012596 
	C405.800781,54.958984 403.414459,58.329060 400.942871,62.479492 
z"/>
<path fill="#FFFFFF" opacity="1.000000" stroke="none" 
	d="
M195.024872,31.000000 
	C204.684174,31.000000 213.848572,30.968769 223.012604,31.011829 
	C228.423874,31.037254 233.402390,32.007175 236.113449,37.544235 
	C239.251266,43.952873 238.836731,48.111061 234.665787,53.780891 
	C236.514526,58.007660 239.445023,61.931122 239.641876,65.987251 
	C239.816879,69.593430 237.678207,73.967056 235.202911,76.826576 
	C233.421036,78.885040 229.420929,79.814201 226.386703,79.865990 
	C209.895844,80.147423 193.397308,79.941925 176.902374,80.050369 
	C173.733536,80.071198 172.907974,78.754501 172.957367,75.851173 
	C173.084915,68.355324 173.165909,60.850632 172.929657,53.360065 
	C172.812607,49.648533 174.399384,48.908760 177.692642,48.944431 
	C190.354477,49.081585 203.018723,48.984356 215.681976,49.013138 
	C218.211304,49.018887 220.497818,48.922733 219.765884,45.088284 
	C204.628189,45.088284 189.493683,45.088284 172.589325,45.088284 
	C176.297699,40.687851 179.720169,37.640564 181.852661,33.864727 
	C185.272842,27.808933 190.484268,32.560726 195.024872,31.000000 
M219.891998,65.556450 
	C220.681503,61.354229 217.872498,61.026493 214.905090,61.012859 
	C207.738968,60.979927 200.572510,61.004345 193.406357,61.040272 
	C192.956268,61.042530 192.507675,61.342945 191.929092,61.551189 
	C192.037048,63.018726 192.140686,64.427689 192.254074,65.969162 
	C201.437302,65.969162 210.253494,65.969162 219.891998,65.556450 
z"/>
<path fill="#FFFFFF" opacity="1.000000" stroke="none" 
	d="
M93.848289,100.000000 
	C110.049004,100.000000 125.766731,100.000000 141.744965,100.000000 
	C141.744965,107.351509 141.744965,115.422646 141.744965,124.248322 
	C106.365379,124.248322 71.020973,124.248322 35.337486,124.248322 
	C35.337486,116.821220 35.337486,108.746063 35.337486,100.000000 
	C54.533508,100.000000 73.949409,100.000000 93.848289,100.000000 
z"/>
<path fill="#FFFFFF" opacity="1.000000" stroke="none" 
	d="
M422.000000,124.000000 
	C411.190643,124.000000 400.881317,124.000000 390.286682,124.000000 
	C390.286682,115.715347 390.286682,107.643066 390.286682,99.283897 
	C425.626038,99.283897 461.026306,99.283897 496.713318,99.283897 
	C496.713318,107.284569 496.713318,115.356850 496.713318,124.000000 
	C472.019135,124.000000 447.259552,124.000000 422.000000,124.000000 
z"/>
<path fill="#FFFFFF" opacity="1.000000" stroke="none" 
	d="
M294.770508,49.000000 
	C296.731354,49.000000 298.220001,49.000000 300.238464,49.000000 
	C297.987640,52.630295 296.349152,56.190254 293.843475,58.967926 
	C292.356781,60.615993 289.533875,61.771511 287.258148,61.866692 
	C279.118774,62.207115 270.956512,61.999996 262.386566,61.999996 
	C262.256073,63.188629 262.127716,64.357773 261.960938,65.876892 
	C275.719879,65.876892 289.158173,65.876892 302.656921,65.876892 
	C300.735138,75.167244 294.914124,80.000000 285.949982,80.000000 
	C272.157410,80.000000 258.364838,80.000000 244.286636,80.000000 
	C244.286636,63.726955 244.286636,47.669506 244.286636,31.000000 
	C253.918442,31.000000 263.666260,31.000000 273.414062,31.000000 
	C283.189972,31.000000 292.965881,31.000000 303.742615,31.000000 
	C300.135651,35.975361 297.138123,40.340439 293.829956,44.455811 
	C293.251404,45.175499 291.367432,44.973957 290.085419,44.979374 
	C280.943695,45.018040 271.801697,45.000000 262.279572,45.000000 
	C262.197235,46.310394 262.123810,47.479126 262.028259,49.000000 
	C273.050812,49.000000 283.674561,49.000000 294.770508,49.000000 
z"/>
<path fill="#FFFFFF" opacity="1.000000" stroke="none" 
	d="
M367.539124,138.802643 
	C364.872925,139.617722 362.558624,140.827301 360.264252,140.790619 
	C347.685608,140.589523 334.739288,143.252319 322.739746,137.837402 
	C317.745239,135.583588 313.515625,130.925201 313.192657,125.233505 
	C312.554260,113.983116 313.004303,102.670967 313.004303,91.194565 
	C319.018707,91.194565 324.640839,91.194565 331.000000,91.194565 
	C331.000000,98.451195 331.000000,105.864189 331.000000,113.277184 
	C331.000000,114.943771 331.154877,116.627693 330.970734,118.273682 
	C330.432129,123.088501 332.230560,126.446571 337.236877,126.607101 
	C343.438416,126.805954 349.713806,126.666290 355.860321,125.897575 
	C359.689850,125.418633 361.127502,122.228088 361.052734,118.247932 
	C360.884583,109.296989 361.000000,100.340721 361.000000,91.204483 
	C367.139618,91.204483 372.877869,91.204483 378.994385,91.204483 
	C378.994385,102.360435 379.387695,113.335678 378.850464,124.265175 
	C378.515076,131.087799 373.452057,135.271835 367.539124,138.802643 
z"/>
<path fill="#FFFFFF" opacity="1.000000" stroke="none" 
	d="
M141.611237,66.999977 
	C148.788376,65.943680 150.997787,63.444672 150.999481,56.885948 
	C151.001663,48.427536 151.000000,39.969124 151.000000,31.256824 
	C157.006546,31.256824 162.740280,31.256824 168.998062,31.256824 
	C168.998062,42.518810 169.980469,53.896957 168.602737,64.981766 
	C167.862640,70.936371 163.460373,77.200912 156.605469,78.869881 
	C141.974640,82.432053 127.214172,82.652679 112.720055,77.881363 
	C107.359138,76.116623 103.042404,68.792244 103.010071,62.173920 
	C102.968613,53.686031 103.015732,45.197731 102.987236,36.709736 
	C102.981255,34.928047 102.812553,33.146908 102.709801,31.193909 
	C108.379616,31.193909 114.470490,31.193909 121.000000,31.193909 
	C121.000000,40.118835 120.986984,48.889732 121.004189,57.660572 
	C121.017487,64.442200 123.333076,66.822235 130.171524,66.984535 
	C133.830978,67.071381 137.494186,66.999985 141.611237,66.999977 
z"/>
<path fill="#FFFFFF" opacity="1.000000" stroke="none" 
	d="
M45.284721,74.779045 
	C37.337780,68.874825 33.936630,61.275162 35.043621,51.840111 
	C35.708927,46.169601 38.175278,41.233265 42.782761,37.705261 
	C49.019440,32.929760 55.887169,30.523804 64.033058,30.866261 
	C76.259445,31.380266 88.523415,31.000000 102.022141,31.000000 
	C98.192154,36.132034 95.104179,40.444851 91.767120,44.555462 
	C91.257683,45.182995 89.596581,44.977840 88.467308,44.983227 
	C81.476807,45.016575 74.483734,45.111877 67.496117,44.966255 
	C61.392899,44.839062 56.683544,47.362080 54.129940,52.688694 
	C53.193962,54.641064 53.653530,58.018837 54.760509,60.044807 
	C57.493702,65.047035 62.319012,66.211983 67.873451,66.077858 
	C78.816864,65.813599 89.771149,66.000000 101.875496,66.000000 
	C98.730324,70.493156 96.276756,74.379089 93.388359,77.909225 
	C92.432472,79.077484 90.365990,79.882767 88.790932,79.910049 
	C78.640884,80.085869 68.452301,80.483864 58.349079,79.774010 
	C53.994980,79.468086 49.814541,76.690521 45.284721,74.779045 
z"/>
<path fill="#FFFFFF" opacity="1.000000" stroke="none" 
	d="
M485.989807,31.000000 
	C490.916534,31.000000 495.345825,31.000000 501.136414,31.000000 
	C497.248108,36.153606 494.166718,40.464146 490.777374,44.517185 
	C490.180725,45.230652 488.296478,44.967861 487.005035,44.981625 
	C482.533783,45.029278 478.061707,45.000000 473.214783,45.000000 
	C473.214783,56.582684 473.214783,67.977074 473.214783,79.684097 
	C467.118256,79.684097 461.385345,79.684097 455.270721,79.684097 
	C455.270721,68.474251 455.270721,57.079800 455.270721,45.200237 
	C447.690155,45.200237 440.462158,45.200237 432.221405,45.200237 
	C433.736481,42.273781 434.756439,40.097679 435.966614,38.033062 
	C436.893677,36.451527 437.807770,34.692928 439.189270,33.592751 
	C440.708771,32.382626 442.746033,31.138668 444.575775,31.111198 
	C458.212128,30.906467 471.852936,31.000006 485.989807,31.000000 
z"/>
</svg>